<mxfile host="app.diagrams.net" modified="2021-01-21T03:01:09.900Z" agent="5.0 (Macintosh; Intel Mac OS X 10_11_6) AppleWebKit/537.36 (KHTML, like Gecko) Chrome/87.0.4280.141 Safari/537.36" etag="IHYVT0BjdoiT0Bn90tZU" version="14.2.4" type="github">
  <diagram id="cppIz4ODQsC3Id5hESqq" name="Page-1">
    <mxGraphModel dx="809" dy="533" grid="1" gridSize="10" guides="1" tooltips="1" connect="1" arrows="1" fold="1" page="1" pageScale="1" pageWidth="827" pageHeight="1169" math="0" shadow="1">
      <root>
        <mxCell id="0" />
        <mxCell id="1" parent="0" />
        <mxCell id="WU8dETqMPNZHX1-F3L2t-12" style="edgeStyle=orthogonalEdgeStyle;rounded=0;orthogonalLoop=1;jettySize=auto;html=1;entryX=0.483;entryY=0.033;entryDx=0;entryDy=0;entryPerimeter=0;dashed=1;" edge="1" parent="1" source="WU8dETqMPNZHX1-F3L2t-1" target="WU8dETqMPNZHX1-F3L2t-2">
          <mxGeometry relative="1" as="geometry" />
        </mxCell>
        <mxCell id="WU8dETqMPNZHX1-F3L2t-13" style="edgeStyle=orthogonalEdgeStyle;rounded=0;orthogonalLoop=1;jettySize=auto;html=1;entryX=0.492;entryY=0.033;entryDx=0;entryDy=0;entryPerimeter=0;dashed=1;" edge="1" parent="1" source="WU8dETqMPNZHX1-F3L2t-1" target="WU8dETqMPNZHX1-F3L2t-3">
          <mxGeometry relative="1" as="geometry" />
        </mxCell>
        <mxCell id="WU8dETqMPNZHX1-F3L2t-16" style="edgeStyle=orthogonalEdgeStyle;rounded=0;orthogonalLoop=1;jettySize=auto;html=1;entryX=0.408;entryY=-0.067;entryDx=0;entryDy=0;entryPerimeter=0;dashed=1;" edge="1" parent="1" source="WU8dETqMPNZHX1-F3L2t-1" target="WU8dETqMPNZHX1-F3L2t-4">
          <mxGeometry relative="1" as="geometry" />
        </mxCell>
        <mxCell id="WU8dETqMPNZHX1-F3L2t-1" value="web" style="verticalLabelPosition=middle;verticalAlign=middle;html=1;shape=mxgraph.basic.rect;fillColor2=none;strokeWidth=1;size=20;indent=5;labelPosition=center;align=center;fillColor=#1ba1e2;strokeColor=#006EAF;fontColor=#ffffff;" vertex="1" parent="1">
          <mxGeometry x="330" y="90" width="120" height="60" as="geometry" />
        </mxCell>
        <mxCell id="WU8dETqMPNZHX1-F3L2t-10" style="edgeStyle=orthogonalEdgeStyle;rounded=0;orthogonalLoop=1;jettySize=auto;html=1;entryX=0.483;entryY=0.017;entryDx=0;entryDy=0;entryPerimeter=0;dashed=1;" edge="1" parent="1" source="WU8dETqMPNZHX1-F3L2t-2" target="WU8dETqMPNZHX1-F3L2t-9">
          <mxGeometry relative="1" as="geometry" />
        </mxCell>
        <mxCell id="WU8dETqMPNZHX1-F3L2t-2" value="admin" style="verticalLabelPosition=middle;verticalAlign=middle;html=1;shape=mxgraph.basic.rect;fillColor2=none;strokeWidth=1;size=20;indent=5;labelPosition=center;align=center;fillColor=#f0a30a;strokeColor=#BD7000;fontColor=#ffffff;" vertex="1" parent="1">
          <mxGeometry x="600" y="190" width="120" height="60" as="geometry" />
        </mxCell>
        <mxCell id="WU8dETqMPNZHX1-F3L2t-11" style="edgeStyle=orthogonalEdgeStyle;rounded=0;orthogonalLoop=1;jettySize=auto;html=1;entryX=0.458;entryY=0;entryDx=0;entryDy=0;entryPerimeter=0;dashed=1;" edge="1" parent="1" source="WU8dETqMPNZHX1-F3L2t-3" target="WU8dETqMPNZHX1-F3L2t-8">
          <mxGeometry relative="1" as="geometry" />
        </mxCell>
        <mxCell id="WU8dETqMPNZHX1-F3L2t-3" value="label" style="verticalLabelPosition=middle;verticalAlign=middle;html=1;shape=mxgraph.basic.rect;fillColor2=none;strokeWidth=1;size=20;indent=5;labelPosition=center;align=center;fillColor=#f0a30a;strokeColor=#BD7000;fontColor=#ffffff;" vertex="1" parent="1">
          <mxGeometry x="450" y="190" width="120" height="60" as="geometry" />
        </mxCell>
        <mxCell id="WU8dETqMPNZHX1-F3L2t-17" value="" style="edgeStyle=orthogonalEdgeStyle;rounded=0;orthogonalLoop=1;jettySize=auto;html=1;dashed=1;" edge="1" parent="1" source="WU8dETqMPNZHX1-F3L2t-4" target="WU8dETqMPNZHX1-F3L2t-5">
          <mxGeometry relative="1" as="geometry" />
        </mxCell>
        <mxCell id="WU8dETqMPNZHX1-F3L2t-18" style="edgeStyle=orthogonalEdgeStyle;rounded=0;orthogonalLoop=1;jettySize=auto;html=1;dashed=1;" edge="1" parent="1" source="WU8dETqMPNZHX1-F3L2t-4" target="WU8dETqMPNZHX1-F3L2t-6">
          <mxGeometry relative="1" as="geometry" />
        </mxCell>
        <mxCell id="WU8dETqMPNZHX1-F3L2t-19" style="edgeStyle=orthogonalEdgeStyle;rounded=0;orthogonalLoop=1;jettySize=auto;html=1;entryX=0.375;entryY=0.033;entryDx=0;entryDy=0;entryPerimeter=0;dashed=1;" edge="1" parent="1" source="WU8dETqMPNZHX1-F3L2t-4" target="WU8dETqMPNZHX1-F3L2t-7">
          <mxGeometry relative="1" as="geometry" />
        </mxCell>
        <mxCell id="WU8dETqMPNZHX1-F3L2t-20" style="edgeStyle=orthogonalEdgeStyle;rounded=0;orthogonalLoop=1;jettySize=auto;html=1;entryX=0.008;entryY=0.667;entryDx=0;entryDy=0;entryPerimeter=0;dashed=1;" edge="1" parent="1" source="WU8dETqMPNZHX1-F3L2t-4" target="WU8dETqMPNZHX1-F3L2t-8">
          <mxGeometry relative="1" as="geometry">
            <Array as="points">
              <mxPoint x="370" y="220" />
              <mxPoint x="370" y="340" />
              <mxPoint x="431" y="340" />
            </Array>
          </mxGeometry>
        </mxCell>
        <mxCell id="WU8dETqMPNZHX1-F3L2t-4" value="modeling" style="verticalLabelPosition=middle;verticalAlign=middle;html=1;shape=mxgraph.basic.rect;fillColor2=none;strokeWidth=1;size=20;indent=5;labelPosition=center;align=center;fillColor=#e51400;strokeColor=#B20000;fontColor=#ffffff;" vertex="1" parent="1">
          <mxGeometry x="200" y="190" width="110" height="60" as="geometry" />
        </mxCell>
        <mxCell id="WU8dETqMPNZHX1-F3L2t-5" value="meta" style="verticalLabelPosition=middle;verticalAlign=middle;html=1;shape=mxgraph.basic.rect;fillColor2=none;strokeWidth=1;size=20;indent=5;labelPosition=center;align=center;fillColor=#f0a30a;strokeColor=#BD7000;fontColor=#ffffff;" vertex="1" parent="1">
          <mxGeometry x="20" y="190" width="120" height="60" as="geometry" />
        </mxCell>
        <mxCell id="WU8dETqMPNZHX1-F3L2t-6" value="schedule" style="verticalLabelPosition=middle;verticalAlign=middle;html=1;shape=mxgraph.basic.rect;fillColor2=none;strokeWidth=1;size=20;indent=5;labelPosition=center;align=center;fillColor=#f0a30a;strokeColor=#BD7000;fontColor=#ffffff;" vertex="1" parent="1">
          <mxGeometry x="110" y="380" width="120" height="60" as="geometry" />
        </mxCell>
        <mxCell id="WU8dETqMPNZHX1-F3L2t-7" value="parser" style="verticalLabelPosition=middle;verticalAlign=middle;html=1;shape=mxgraph.basic.rect;fillColor2=none;strokeWidth=1;size=20;indent=5;labelPosition=center;align=center;fillColor=#f0a30a;strokeColor=#BD7000;fontColor=#ffffff;" vertex="1" parent="1">
          <mxGeometry x="294" y="380" width="120" height="60" as="geometry" />
        </mxCell>
        <mxCell id="WU8dETqMPNZHX1-F3L2t-8" value="common" style="verticalLabelPosition=middle;verticalAlign=middle;html=1;shape=mxgraph.basic.rect;fillColor2=none;strokeWidth=1;size=20;indent=5;labelPosition=center;align=center;fillColor=#1ba1e2;strokeColor=#006EAF;fontColor=#ffffff;" vertex="1" parent="1">
          <mxGeometry x="440" y="300" width="120" height="60" as="geometry" />
        </mxCell>
        <mxCell id="WU8dETqMPNZHX1-F3L2t-9" value="dids" style="verticalLabelPosition=middle;verticalAlign=middle;html=1;shape=mxgraph.basic.rect;fillColor2=none;strokeWidth=1;size=20;indent=5;labelPosition=center;align=center;fillColor=#e3c800;strokeColor=#B09500;fontColor=#ffffff;dashed=1;" vertex="1" parent="1">
          <mxGeometry x="660" y="300" width="120" height="60" as="geometry" />
        </mxCell>
      </root>
    </mxGraphModel>
  </diagram>
</mxfile>
